<svg width="63" height="46" viewBox="0 0 63 46" fill="none" xmlns="http://www.w3.org/2000/svg">
<path d="M7.584 20.336C6.208 20.336 4.88 20.168 3.6 19.832C2.336 19.48 1.304 19.032 0.504 18.488L2.064 14.984C2.816 15.464 3.68 15.864 4.656 16.184C5.648 16.488 6.632 16.64 7.608 16.64C8.264 16.64 8.792 16.584 9.192 16.472C9.592 16.344 9.88 16.184 10.056 15.992C10.248 15.784 10.344 15.544 10.344 15.272C10.344 14.888 10.168 14.584 9.816 14.36C9.464 14.136 9.008 13.952 8.448 13.808C7.888 13.664 7.264 13.52 6.576 13.376C5.904 13.232 5.224 13.048 4.536 12.824C3.864 12.6 3.248 12.312 2.688 11.96C2.128 11.592 1.672 11.12 1.32 10.544C0.968 9.952 0.792 9.208 0.792 8.312C0.792 7.304 1.064 6.392 1.608 5.576C2.168 4.76 3 4.104 4.104 3.608C5.208 3.112 6.584 2.864 8.232 2.864C9.336 2.864 10.416 2.992 11.472 3.248C12.544 3.488 13.496 3.848 14.328 4.328L12.864 7.856C12.064 7.424 11.272 7.104 10.488 6.896C9.704 6.672 8.944 6.56 8.208 6.56C7.552 6.56 7.024 6.632 6.624 6.776C6.224 6.904 5.936 7.08 5.76 7.304C5.584 7.528 5.496 7.784 5.496 8.072C5.496 8.44 5.664 8.736 6 8.96C6.352 9.168 6.808 9.344 7.368 9.488C7.944 9.616 8.568 9.752 9.24 9.896C9.928 10.04 10.608 10.224 11.28 10.448C11.968 10.656 12.592 10.944 13.152 11.312C13.712 11.664 14.16 12.136 14.496 12.728C14.848 13.304 15.024 14.032 15.024 14.912C15.024 15.888 14.744 16.792 14.184 17.624C13.64 18.44 12.816 19.096 11.712 19.592C10.624 20.088 9.248 20.336 7.584 20.336ZM16.8591 20V3.2H24.5391C26.0751 3.2 27.3951 3.448 28.4991 3.944C29.6191 4.44 30.4831 5.16 31.0911 6.104C31.6991 7.032 32.0031 8.136 32.0031 9.416C32.0031 10.68 31.6991 11.776 31.0911 12.704C30.4831 13.632 29.6191 14.352 28.4991 14.864C27.3951 15.36 26.0751 15.608 24.5391 15.608H19.4991L21.6111 13.544V20H16.8591ZM21.6111 14.048L19.4991 11.864H24.2511C25.2431 11.864 25.9791 11.648 26.4591 11.216C26.9551 10.784 27.2031 10.184 27.2031 9.416C27.2031 8.632 26.9551 8.024 26.4591 7.592C25.9791 7.16 25.2431 6.944 24.2511 6.944H19.4991L21.6111 4.76V14.048ZM1.464 43V25.192H6.024V43H1.464ZM16.5714 43V40.576L16.2594 39.976V35.512C16.2594 34.792 16.0354 34.24 15.5874 33.856C15.1554 33.456 14.4594 33.256 13.4994 33.256C12.8754 33.256 12.2434 33.36 11.6034 33.568C10.9634 33.76 10.4194 34.032 9.97144 34.384L8.43544 31.288C9.17144 30.808 10.0514 30.44 11.0754 30.184C12.1154 29.912 13.1474 29.776 14.1714 29.776C16.2834 29.776 17.9154 30.264 19.0674 31.24C20.2354 32.2 20.8194 33.712 20.8194 35.776V43H16.5714ZM12.7314 43.216C11.6914 43.216 10.8114 43.04 10.0914 42.688C9.37144 42.336 8.81944 41.856 8.43544 41.248C8.06744 40.64 7.88344 39.96 7.88344 39.208C7.88344 38.408 8.08344 37.72 8.48344 37.144C8.89944 36.552 9.53144 36.104 10.3794 35.8C11.2274 35.48 12.3234 35.32 13.6674 35.32H16.7394V37.696H14.2914C13.5554 37.696 13.0354 37.816 12.7314 38.056C12.4434 38.296 12.2994 38.616 12.2994 39.016C12.2994 39.416 12.4514 39.736 12.7554 39.976C13.0594 40.216 13.4754 40.336 14.0034 40.336C14.4994 40.336 14.9474 40.216 15.3474 39.976C15.7634 39.72 16.0674 39.336 16.2594 38.824L16.8834 40.504C16.6434 41.4 16.1714 42.08 15.4674 42.544C14.7794 42.992 13.8674 43.216 12.7314 43.216ZM31.5218 43.216C30.3538 43.216 29.3778 42.976 28.5938 42.496C27.8258 42.016 27.2498 41.28 26.8658 40.288C26.4818 39.296 26.2898 38.024 26.2898 36.472C26.2898 34.952 26.4898 33.696 26.8898 32.704C27.3058 31.712 27.9058 30.976 28.6898 30.496C29.4738 30.016 30.4178 29.776 31.5218 29.776C32.7058 29.776 33.7778 30.048 34.7378 30.592C35.7138 31.136 36.4818 31.912 37.0418 32.92C37.6178 33.912 37.9058 35.096 37.9058 36.472C37.9058 37.864 37.6178 39.064 37.0418 40.072C36.4818 41.064 35.7138 41.84 34.7378 42.4C33.7778 42.944 32.7058 43.216 31.5218 43.216ZM23.3378 43V25.192H27.8978V32.176L27.6578 36.472L27.6818 40.768V43H23.3378ZM30.5618 39.592C31.0738 39.592 31.5298 39.472 31.9298 39.232C32.3458 38.992 32.6738 38.64 32.9138 38.176C33.1698 37.696 33.2978 37.128 33.2978 36.472C33.2978 35.816 33.1698 35.264 32.9138 34.816C32.6738 34.352 32.3458 34 31.9298 33.76C31.5298 33.52 31.0738 33.4 30.5618 33.4C30.0498 33.4 29.5858 33.52 29.1698 33.76C28.7698 34 28.4418 34.352 28.1858 34.816C27.9458 35.264 27.8258 35.816 27.8258 36.472C27.8258 37.128 27.9458 37.696 28.1858 38.176C28.4418 38.64 28.7698 38.992 29.1698 39.232C29.5858 39.472 30.0498 39.592 30.5618 39.592ZM44.3932 43.216C43.2892 43.216 42.2092 43.088 41.1532 42.832C40.1132 42.576 39.2732 42.256 38.6332 41.872L40.0012 38.752C40.6092 39.12 41.3212 39.416 42.1372 39.64C42.9532 39.848 43.7532 39.952 44.5372 39.952C45.3052 39.952 45.8332 39.872 46.1212 39.712C46.4252 39.552 46.5772 39.336 46.5772 39.064C46.5772 38.808 46.4332 38.624 46.1452 38.512C45.8732 38.384 45.5052 38.288 45.0412 38.224C44.5932 38.16 44.0972 38.088 43.5532 38.008C43.0092 37.928 42.4572 37.824 41.8972 37.696C41.3532 37.552 40.8492 37.344 40.3852 37.072C39.9372 36.784 39.5772 36.4 39.3052 35.92C39.0332 35.44 38.8972 34.832 38.8972 34.096C38.8972 33.264 39.1372 32.528 39.6172 31.888C40.1132 31.232 40.8332 30.72 41.7772 30.352C42.7212 29.968 43.8732 29.776 45.2332 29.776C46.1452 29.776 47.0652 29.872 47.9932 30.064C48.9372 30.24 49.7292 30.512 50.3692 30.88L49.0012 33.976C48.3612 33.608 47.7212 33.36 47.0812 33.232C46.4412 33.088 45.8332 33.016 45.2572 33.016C44.4892 33.016 43.9452 33.104 43.6252 33.28C43.3212 33.456 43.1692 33.672 43.1692 33.928C43.1692 34.184 43.3052 34.384 43.5772 34.528C43.8492 34.656 44.2092 34.76 44.6572 34.84C45.1212 34.904 45.6252 34.976 46.1692 35.056C46.7132 35.12 47.2572 35.224 47.8012 35.368C48.3612 35.512 48.8652 35.728 49.3132 36.016C49.7772 36.288 50.1452 36.664 50.4172 37.144C50.6892 37.608 50.8252 38.208 50.8252 38.944C50.8252 39.744 50.5772 40.464 50.0812 41.104C49.6012 41.744 48.8812 42.256 47.9212 42.64C46.9772 43.024 45.8012 43.216 44.3932 43.216ZM50.9663 45.496V43H62.9663V45.496H50.9663Z" fill="white"/>
</svg>
